<svg xmlns="http://www.w3.org/2000/svg" width="120" height="40" viewBox="0 0 120 40"><defs><style>.a{fill:rgba(255,255,255,0);}.b{fill:#ffd46e;}</style></defs><g transform="translate(-80 -40)"><rect class="a" width="120" height="40" transform="translate(80 40)"/><g transform="translate(40.031 18.24)"><path class="b" d="M56.673,36.048a7.467,7.467,0,0,1,3.712-.912,7.157,7.157,0,0,1,5.632,2.624l3.328-3.072a10.539,10.539,0,0,0-3.952-2.944,13.067,13.067,0,0,0-5.264-1.024A12.932,12.932,0,0,0,53.9,32.208a11.093,11.093,0,0,0-4.352,4.128,12.033,12.033,0,0,0,0,11.935A11.107,11.107,0,0,0,53.9,52.4,12.84,12.84,0,0,0,60.1,53.888a13.149,13.149,0,0,0,5.28-1.025,10.365,10.365,0,0,0,3.968-2.975l-3.328-3.073a7.118,7.118,0,0,1-5.632,2.657,7.478,7.478,0,0,1-3.712-.912,6.483,6.483,0,0,1-2.544-2.544,8.01,8.01,0,0,1,0-7.424A6.477,6.477,0,0,1,56.673,36.048Z"/><rect class="b" width="4.992" height="23.744" transform="translate(72.48 29.76)"/><path class="b" d="M95.168,37.168a11,11,0,0,0-9.743,0,8.43,8.43,0,0,0-3.376,3.151,9.213,9.213,0,0,0,0,9.153,8.439,8.439,0,0,0,3.376,3.152,11.013,11.013,0,0,0,9.743,0,8.474,8.474,0,0,0,3.36-3.152,9.22,9.22,0,0,0,0-9.153A8.465,8.465,0,0,0,95.168,37.168Zm-1.712,11.2a4.157,4.157,0,0,1-3.151,1.3,4.209,4.209,0,0,1-3.168-1.3A4.79,4.79,0,0,1,85.889,44.9a4.794,4.794,0,0,1,1.248-3.472,4.208,4.208,0,0,1,3.168-1.3,4.157,4.157,0,0,1,3.151,1.3A4.832,4.832,0,0,1,94.688,44.9,4.828,4.828,0,0,1,93.456,48.367Z"/><path class="b" d="M115.424,44.8a4.921,4.921,0,0,1-1.088,3.471,3.747,3.747,0,0,1-2.88,1.168q-3.488,0-3.487-4.16V36.288h-4.992v9.728q0,3.839,1.983,5.792a7.334,7.334,0,0,0,5.376,1.952,7.445,7.445,0,0,0,2.976-.592,6.633,6.633,0,0,0,2.369-1.712V53.5h4.735V36.288h-4.992Z"/><path class="b" d="M137.6,38.111a6.558,6.558,0,0,0-5.153-2.08,8.945,8.945,0,0,0-4.4,1.089,7.79,7.79,0,0,0-3.088,3.1,10.3,10.3,0,0,0,0,9.343,7.793,7.793,0,0,0,3.088,3.1,8.944,8.944,0,0,0,4.4,1.088,6.583,6.583,0,0,0,5.376-2.24V53.5h4.769V29.76H137.6Zm-1.153,10.256a4.477,4.477,0,0,1-6.3,0A4.786,4.786,0,0,1,128.9,44.9a4.79,4.79,0,0,1,1.249-3.472,4.48,4.48,0,0,1,6.3,0A4.794,4.794,0,0,1,137.7,44.9,4.79,4.79,0,0,1,136.448,48.367Z"/><path class="b" d="M151.3,48.4a3.3,3.3,0,0,0-4.416,0,2.923,2.923,0,0,0-.9,2.225,3.033,3.033,0,0,0,.9,2.239,3.166,3.166,0,0,0,4.416,0,3.035,3.035,0,0,0,.895-2.239A2.925,2.925,0,0,0,151.3,48.4Z"/></g></g></svg>